# xmcd
#
# Track frame offsets: 
#        150
#        14431
#        33386
#        41867
#        58151
#        79053
#        98515
#        118884
#        136281
#        155707
#        170397
#        184043
#        199116
#        214621
#        227796
#        238648
#        250403
#        272446
#
# Disc length: 3826 seconds
#
# Revision: 0
# Processed by: cddbd v1.5.2PL0 Copyright (c) Steve Scherf et al.
# Submitted via: ExactAudioCopyFreeDBPlugin 1.0
#
DISCID=fa0ef012
DTITLE=Grzegorz Turnau - Bedford School
DYEAR=2018
DGENRE=Pop
TTITLE0=Bedford School
TTITLE1=The Fool On The Hill
TTITLE2=Souvenir
TTITLE3=Vienna
TTITLE4=Miami 2017 (Seen The Lights Go Out On Broadway)
TTITLE5=Waterfalls
TTITLE6=Seven Days
TTITLE7=Maxine
TTITLE8=All Dead, All Dead
TTITLE9=My Valentine
TTITLE10=Until
TTITLE11=Sorry Seems To Be The Hardest Word
TTITLE12=She's Always a Woman
TTITLE13=Here, There and Everywhere
TTITLE14=For No One
TTITLE15=Blackbird
TTITLE16=Imagine
TTITLE17=Where's The Orchestra
EXTD=
EXTT0=
EXTT1=
EXTT2=
EXTT3=
EXTT4=
EXTT5=
EXTT6=
EXTT7=
EXTT8=
EXTT9=
EXTT10=
EXTT11=
EXTT12=
EXTT13=
EXTT14=
EXTT15=
EXTT16=
EXTT17=
PLAYORDER=
